<svg width="200" height="1" viewBox="0 0 200 1" fill="none" xmlns="http://www.w3.org/2000/svg">
<g clip-path="url(#clip0_33_1316)">
<path d="M599.229 0.0792647C598.423 0.0595603 597.86 0.163009 597.012 0.0792647C596.126 0.0152253 596.084 0.352664 595.44 0.121137C594.554 0.0595603 592.3 0.182713 591.613 0.140841C590.486 0.0792647 589.922 0.0570972 588.913 0.140841C588.108 -0.00694218 586.858 0.0792647 586.176 0.140841C585.532 0.182713 584.684 0.0152253 583.476 0.140841C582.51 0.160545 581.984 -0.00694216 581.099 0.121137C580.17 0.140841 579.768 0.0373928 578.844 0.0792647C578.778 0.0743386 578.726 0.0768017 578.674 0.0792647C578.617 0.0694125 578.56 0.0620233 578.489 0.0669494C577.603 0.108821 576.594 0.047245 575.51 0.0866539C575.065 0.379757 574.582 0.0669494 573.417 0.128526C572.45 0.170398 571.844 0.0866539 570.717 0.128526C569.628 0.190102 568.903 0.14823 568.017 0.128526C567.008 0.0866539 566.246 0.14823 565.28 0.128526C564.271 0.108821 563.385 0.0669494 562.58 0.128526C561.571 0.128526 560.927 0.14823 560.165 0.0866539C559.255 0.163009 559.028 0.0349297 558.128 0.118674C558.076 0.116211 558.01 0.113747 557.934 0.118674C556.887 0.138378 556.485 -0.00694217 555.68 0.118674H553.184C552.014 0.0546342 552.255 0.347738 551.209 0.160545C550.242 0.160545 547.704 0.118674 546.78 0.140841C545.975 0.433945 545.975 0.0152253 545.047 0.121137C543.958 0.224585 543.313 0.0152253 542.347 0.121137H539.61C538.644 0.101432 538.322 0.20488 537.516 0.101432C537.318 0.0792647 537.175 0.0841908 537.067 0.106358C537.043 0.106358 537.024 0.106358 537 0.106358C536.152 0.14823 535.669 0.044782 534.864 0.126063C534.177 0.167935 533.415 0.0226145 532.288 0.106358C531.359 0.231974 530.194 0.044782 529.588 0.106358C528.499 0.14823 526.727 0.14823 525.6 0.106358C524.914 0.35759 524.876 0.044782 524.151 0.106358C522.981 0.209807 522.219 -0.0192574 521.451 0.106358C521.243 0.130989 521.063 0.140841 520.883 0.140841C520.76 0.0768017 520.585 0.0521711 520.329 0.0866539C520.073 0.0792647 519.841 0.0866539 519.619 0.094043C519.51 0.09158 519.401 0.0866539 519.278 0.0841908C518.894 0.101432 518.61 0.103895 518.34 0.101432C518.269 0.0965061 518.193 0.09158 518.117 0.0841908C517.932 0.0718756 517.786 0.0768017 517.662 0.09158C517.44 0.0866539 517.184 0.0841908 516.862 0.0841908C516.46 0.0546342 516.208 0.0644864 516.052 0.111284C515.005 0.0989691 513.3 0.185176 512.723 0.14823C511.595 0.0866539 511.032 0.0644864 510.023 0.14823C509.218 0.000446991 507.968 0.0866539 507.286 0.14823C506.641 0.190102 505.794 0.0226145 504.586 0.14823C503.62 0.167935 503.094 0.000446991 502.208 0.128526C501.28 0.14823 500.878 0.044782 499.954 0.0866539C499.888 0.0817278 499.836 0.0841908 499.783 0.0866539C499.727 0.0768017 499.67 0.0694125 499.599 0.0743386C498.713 0.116211 497.704 0.0546342 496.62 0.094043C496.174 0.387147 495.691 0.0743386 494.526 0.135915C493.56 0.177787 492.954 0.094043 491.827 0.135915C490.737 0.197491 490.013 0.155619 489.127 0.135915C488.118 0.094043 487.356 0.155619 486.39 0.135915C485.381 0.116211 484.495 0.0743386 483.69 0.135915C482.681 0.135915 482.037 0.155619 481.275 0.094043C480.36 0.170398 480.138 0.0423189 479.238 0.126063C479.186 0.1236 479.12 0.121137 479.044 0.126063C477.997 0.145767 477.595 0.000446991 476.789 0.126063H474.293C473.124 0.0620233 473.365 0.355127 472.318 0.167935C471.352 0.167935 468.814 0.126063 467.89 0.14823C467.085 0.441334 467.085 0.0226145 466.157 0.128526C465.067 0.231974 464.423 0.0226145 463.457 0.128526H460.72C459.753 0.108821 459.431 0.21227 458.626 0.108821C458.427 0.0866539 458.285 0.09158 458.176 0.113747C458.153 0.113747 458.134 0.113747 458.11 0.113747C457.262 0.155619 456.779 0.0521711 455.974 0.133452C455.287 0.175324 454.525 0.0300036 453.398 0.113747C452.469 0.239363 451.304 0.0521711 450.698 0.113747C449.609 0.155619 447.837 0.155619 446.71 0.113747C446.023 0.364979 445.985 0.0521711 445.261 0.113747C444.091 0.217196 443.328 -0.0118683 442.561 0.113747C441.874 0.197491 441.472 0.113747 440.387 0.094043C440.122 0.106358 439.909 0.111284 439.71 0.111284C439.596 0.0792647 439.45 0.0694125 439.26 0.094043C439.042 0.0891169 438.843 0.094043 438.654 0.0989692C438.46 0.0965061 438.237 0.094043 437.972 0.094043C437.607 0.0694125 437.37 0.0718756 437.209 0.106358C437.153 0.101432 437.1 0.0989692 437.044 0.094043C436.158 0.0300036 436.115 0.367442 435.471 0.135915C434.586 0.0743386 432.331 0.197491 431.644 0.155619C430.517 0.094043 429.954 0.0718756 428.945 0.155619C428.14 0.00783615 426.889 0.094043 426.207 0.155619C425.563 0.197491 424.715 0.0300036 423.508 0.155619C422.542 0.175324 422.016 0.00783616 421.13 0.135915C420.202 0.155619 419.799 0.0521711 418.876 0.094043C418.809 0.0891169 418.757 0.09158 418.705 0.094043C418.648 0.0841908 418.592 0.0768017 418.52 0.0817278C417.635 0.1236 416.626 0.0620233 415.541 0.101432C415.096 0.394536 414.613 0.0817278 413.448 0.143304C412.482 0.185176 411.876 0.101432 410.748 0.143304C409.659 0.20488 408.935 0.163009 408.049 0.143304C407.04 0.101432 406.278 0.163009 405.311 0.143304C404.303 0.1236 403.417 0.0817278 402.612 0.143304C401.603 0.143304 400.959 0.163009 400.196 0.101432C399.287 0.177787 399.06 0.0497081 398.16 0.133452C398.108 0.130989 398.041 0.128526 397.966 0.133452C396.919 0.153156 396.516 0.00783616 395.711 0.133452H393.215C392.045 0.0694125 392.287 0.362516 391.24 0.175324C390.274 0.175324 387.735 0.133452 386.812 0.155619C386.007 0.448723 386.007 0.0300036 385.078 0.135915C383.989 0.239363 383.345 0.0300036 382.379 0.135915H379.641C378.675 0.116211 378.353 0.219659 377.548 0.116211C377.349 0.094043 377.207 0.0989692 377.098 0.121137C377.074 0.121137 377.055 0.121137 377.032 0.121137C376.184 0.163009 375.701 0.0595603 374.896 0.140841C374.209 0.182713 373.446 0.0373928 372.319 0.121137C371.391 0.246752 370.226 0.0595603 369.62 0.121137C368.53 0.163009 366.759 0.163009 365.632 0.121137C364.945 0.372368 364.907 0.0595603 364.183 0.121137C363.013 0.224585 362.25 -0.00447911 361.483 0.121137C361.275 0.145767 361.095 0.155619 360.915 0.155619C360.791 0.09158 360.616 0.0669494 360.36 0.101432C360.105 0.094043 359.873 0.101432 359.65 0.108821C359.541 0.106358 359.432 0.101432 359.309 0.0989692C358.925 0.116211 358.641 0.118674 358.371 0.116211C358.3 0.111284 358.224 0.106358 358.149 0.0989692C357.964 0.0866539 357.817 0.09158 357.694 0.106358C357.471 0.101432 357.216 0.0989692 356.894 0.0989692C356.491 0.0694125 356.24 0.0792647 356.084 0.126063C355.037 0.113747 353.332 0.199954 352.754 0.163009C351.627 0.101432 351.063 0.0792647 350.055 0.163009C349.249 0.0152253 347.999 0.101432 347.317 0.163009C346.673 0.20488 345.825 0.0373928 344.617 0.163009C343.651 0.182713 343.126 0.0152253 342.24 0.143304C341.312 0.163009 340.909 0.0595603 339.986 0.101432C339.919 0.0965061 339.867 0.0989692 339.815 0.101432C339.758 0.09158 339.701 0.0841908 339.63 0.0891169C338.745 0.130989 337.736 0.0694125 336.651 0.108821C336.206 0.401925 335.723 0.0891169 334.558 0.150693C333.592 0.192565 332.986 0.108821 331.858 0.150693C330.769 0.21227 330.044 0.170398 329.159 0.150693C328.15 0.108821 327.387 0.170398 326.421 0.150693C325.412 0.130989 324.527 0.0891169 323.722 0.150693C323.409 0.150693 323.134 0.150693 322.879 0.153156C322.755 0.09158 322.58 0.0694125 322.334 0.103895C322.007 0.0965061 321.723 0.106358 321.443 0.118674C321.396 0.116211 321.353 0.113747 321.306 0.108821C321.008 0.133452 320.78 0.135915 320.582 0.130989C320.435 0.126063 320.283 0.118674 320.117 0.103895C319.885 0.0866539 319.715 0.0989692 319.573 0.118674C319.478 0.1236 319.379 0.130989 319.265 0.140841C319.213 0.138378 319.146 0.135915 319.071 0.140841C318.024 0.160545 317.621 0.0152253 316.816 0.140841H314.32C314.207 0.133452 314.107 0.133452 314.017 0.133452C313.312 0.101432 312.795 0.103895 312.019 0.170398C311.251 0.0300036 310.091 0.0989691 309.39 0.160545C309.073 0.160545 308.774 0.158082 308.514 0.158082C308.04 0.133452 307.477 0.0989692 306.795 0.153156C306.638 0.126063 306.449 0.111284 306.184 0.143304C306.098 0.150693 306.023 0.155619 305.942 0.158082C305.416 0.130989 304.99 0.0743386 304.445 0.1236C304.147 0.108821 303.844 0.106358 303.498 0.140841C302.996 0.121137 302.603 0.0768017 301.949 0.106358C301.883 0.101432 301.831 0.103895 301.779 0.106358C301.722 0.0965061 301.665 0.0891169 301.594 0.094043C300.709 0.135915 299.7 0.0743386 298.615 0.113747C298.615 0.113747 298.606 0.118674 298.606 0.121137C298.435 0.103895 298.303 0.108821 298.203 0.130989C298.18 0.130989 298.161 0.130989 298.137 0.130989C297.289 0.172861 296.806 0.0694125 296.001 0.150693C295.314 0.192565 294.552 0.047245 293.424 0.130989C292.496 0.256605 291.331 0.0694125 290.725 0.130989C290.583 0.135915 290.426 0.140841 290.261 0.145767C289.868 0.145767 289.489 0.158082 289.1 0.160545C289.081 0.160545 289.067 0.160545 289.048 0.160545C288.835 0.160545 288.617 0.160545 288.385 0.158082C287.424 0.138378 286.571 0.101432 285.794 0.153156C285.662 0.128526 285.51 0.111284 285.288 0.130989C284.118 0.234437 283.355 0.00537309 282.588 0.130989C282.56 0.133452 282.536 0.135915 282.508 0.138378C282.133 0.128526 281.835 0.0989691 281.3 0.143304C281.054 0.130989 280.774 0.116211 280.409 0.111284C280.286 0.116211 280.173 0.121137 280.068 0.1236C279.69 0.101432 279.377 0.0792647 278.984 0.1236C278.714 0.118674 278.406 0.113747 277.989 0.113747C277.554 0.0841908 277.298 0.094043 277.141 0.150693H276.28C275.11 0.0866539 275.351 0.379757 274.305 0.192565C273.338 0.192565 270.8 0.150693 269.876 0.172861C269.071 0.465964 269.071 0.047245 268.143 0.153156C267.053 0.256605 266.409 0.047245 265.443 0.153156H262.706C261.74 0.133452 261.417 0.2369 260.612 0.133452C260.413 0.111284 260.271 0.116211 260.162 0.138378C260.139 0.138378 260.12 0.138378 260.096 0.138378C259.248 0.18025 258.765 0.0768017 257.96 0.158082C257.273 0.199954 256.511 0.0546342 255.384 0.138378C254.455 0.263994 253.29 0.0768017 252.684 0.138378C251.595 0.18025 249.823 0.18025 248.696 0.138378C248.009 0.38961 247.971 0.0768017 247.247 0.138378C246.077 0.241826 245.315 0.0127623 244.547 0.138378C244.339 0.163009 244.159 0.172861 243.979 0.172861C243.856 0.108821 243.681 0.0841908 243.425 0.118674C243.169 0.111284 242.937 0.118674 242.714 0.126063C242.605 0.1236 242.497 0.118674 242.373 0.116211C241.99 0.133452 241.706 0.135915 241.436 0.133452C241.365 0.128526 241.289 0.1236 241.213 0.116211C241.028 0.103895 240.881 0.108821 240.758 0.1236C240.536 0.118674 240.28 0.116211 239.958 0.116211C239.555 0.0866539 239.304 0.0965061 239.148 0.143304C238.101 0.130989 236.396 0.217196 235.819 0.18025C234.691 0.118674 234.128 0.0965061 233.119 0.18025C232.314 0.0324667 231.063 0.118674 230.381 0.18025C229.737 0.222122 228.89 0.0546342 227.682 0.18025C226.716 0.199954 226.19 0.0324667 225.304 0.160545C224.376 0.18025 223.973 0.0768017 223.05 0.118674C222.984 0.113747 222.931 0.116211 222.879 0.118674C222.823 0.108821 222.766 0.101432 222.695 0.106358C221.809 0.14823 220.8 0.0866539 219.716 0.126063C219.27 0.419166 218.787 0.106358 217.622 0.167935C216.656 0.209807 216.05 0.126063 214.923 0.167935C213.833 0.229511 213.109 0.187639 212.223 0.167935C211.214 0.126063 210.452 0.187639 209.486 0.167935C208.477 0.14823 207.591 0.106358 206.786 0.167935C205.777 0.167935 205.133 0.187639 204.37 0.126063C203.461 0.202417 203.234 0.0743386 202.334 0.158082C202.282 0.155619 202.215 0.153156 202.14 0.158082C201.093 0.177787 200.69 0.0324667 199.885 0.158082H197.389C196.22 0.094043 196.461 0.387146 195.414 0.199954C194.448 0.199954 191.91 0.158082 190.986 0.18025C190.181 0.473353 190.181 0.0546342 189.253 0.160545C188.163 0.263994 187.519 0.0546342 186.553 0.160545H183.816C182.849 0.140841 182.527 0.244289 181.722 0.140841C181.523 0.118674 181.381 0.1236 181.272 0.145767C181.249 0.145767 181.23 0.145767 181.206 0.145767C180.358 0.187639 179.875 0.0841908 179.07 0.165472C178.383 0.207344 177.621 0.0620233 176.493 0.145767C175.565 0.271383 174.4 0.0841908 173.794 0.145767C172.705 0.187639 170.933 0.187639 169.806 0.145767C169.119 0.396999 169.081 0.0841908 168.357 0.145767C167.187 0.249215 166.424 0.0201514 165.657 0.145767C164.97 0.229511 164.568 0.145767 163.483 0.126063C163.218 0.138378 163.005 0.143304 162.806 0.143304C162.692 0.111284 162.545 0.101432 162.356 0.126063C162.138 0.121137 161.939 0.126063 161.75 0.130989C161.556 0.128526 161.333 0.126063 161.068 0.126063C160.703 0.101432 160.466 0.103895 160.305 0.138378C160.248 0.133452 160.196 0.130989 160.139 0.126063C159.254 0.0620233 159.211 0.399462 158.567 0.167935C157.681 0.106358 155.427 0.229511 154.74 0.187639C153.613 0.126063 153.049 0.103895 152.041 0.187639C151.236 0.0398558 149.985 0.126063 149.303 0.187639C148.659 0.229511 147.811 0.0620233 146.604 0.187639C145.637 0.207344 145.112 0.0398559 144.226 0.167935C143.298 0.187639 142.895 0.0841908 141.972 0.126063C141.905 0.121137 141.853 0.1236 141.801 0.126063C141.744 0.116211 141.687 0.108821 141.616 0.113747C140.731 0.155619 139.722 0.0940431 138.637 0.133452C138.192 0.426555 137.709 0.113747 136.544 0.175324C135.578 0.217196 134.972 0.133452 133.844 0.175324C132.755 0.2369 132.03 0.195028 131.145 0.175324C130.136 0.133452 129.373 0.195028 128.407 0.175324C127.398 0.155619 126.513 0.113747 125.708 0.175324C124.699 0.175324 124.055 0.195028 123.292 0.133452C122.383 0.209807 122.156 0.0817278 121.256 0.165472C121.204 0.163009 121.137 0.160546 121.061 0.165472C120.015 0.185176 119.612 0.0398559 118.807 0.165472H116.311C115.141 0.101432 115.383 0.394536 114.336 0.207344C113.37 0.207344 110.831 0.165472 109.908 0.187639C109.103 0.480743 109.103 0.0620233 108.174 0.167935C107.085 0.271383 106.441 0.0620233 105.475 0.167935H102.737C101.771 0.14823 101.449 0.251678 100.644 0.14823C100.445 0.126063 100.303 0.130989 100.194 0.153156C100.17 0.153156 100.151 0.153156 100.128 0.153156C99.2799 0.195028 98.7968 0.09158 97.9916 0.172861C97.3049 0.214733 96.5424 0.0694125 95.4152 0.153156C94.4869 0.278772 93.3218 0.09158 92.7156 0.153156C91.6262 0.195028 89.8549 0.195028 88.7277 0.153156C88.041 0.404388 88.0031 0.09158 87.2785 0.153156C86.1086 0.256605 85.3461 0.0275406 84.5788 0.153156C84.3704 0.177787 84.1905 0.187639 84.0105 0.187639C83.8874 0.1236 83.7121 0.0989692 83.4564 0.133452C83.2006 0.126063 82.9686 0.133452 82.7459 0.140841C82.637 0.138378 82.5281 0.133452 82.4049 0.130989C82.0213 0.14823 81.7371 0.150693 81.4672 0.14823C81.3961 0.143304 81.3204 0.138378 81.2446 0.130989C81.0599 0.118674 80.9131 0.1236 80.7899 0.138378C80.5673 0.133452 80.3116 0.130989 79.9895 0.130989C79.5869 0.101432 79.3359 0.111284 79.1796 0.158082C78.1329 0.145767 76.4279 0.231974 75.8501 0.195028C74.7229 0.133452 74.1593 0.111284 73.1505 0.195028C72.3453 0.047245 71.095 0.133452 70.413 0.195028C69.7689 0.2369 68.9211 0.0694125 67.7134 0.195028C66.7472 0.214733 66.2215 0.047245 65.3358 0.175324C64.4075 0.195028 64.005 0.09158 63.0814 0.133452C63.0151 0.128526 62.963 0.130989 62.9109 0.133452C62.8541 0.1236 62.7973 0.116211 62.7262 0.121137C61.8406 0.163009 60.8318 0.101432 59.7472 0.140841C59.302 0.433945 58.8189 0.121137 57.6538 0.182713C56.6876 0.224585 56.0814 0.140841 54.9542 0.182713C53.8649 0.244289 53.1402 0.202417 52.2546 0.182713C51.2458 0.140841 50.4833 0.202417 49.5171 0.182713C48.5083 0.163009 47.6226 0.121137 46.8175 0.182713C45.8087 0.182713 45.1645 0.202417 44.402 0.140841C43.4927 0.217196 43.2653 0.0891169 42.3655 0.172861C42.3134 0.170398 42.2471 0.167935 42.1713 0.172861C41.1246 0.192565 40.722 0.047245 39.9169 0.172861H37.4209C36.2511 0.108821 36.4926 0.401925 35.446 0.214733C34.4798 0.214733 31.9412 0.172861 31.0176 0.195028C30.2125 0.488132 30.2125 0.0694125 29.2842 0.175324C28.1949 0.278772 27.5508 0.0694125 26.5846 0.175324H23.8471C22.8809 0.155619 22.5589 0.259068 21.7537 0.155619C21.5548 0.133452 21.4127 0.138378 21.3038 0.160545C21.2801 0.160545 21.2612 0.160545 21.2375 0.160545C20.3897 0.202417 19.9066 0.0989692 19.1015 0.18025C18.4147 0.222122 17.6522 0.0768017 16.525 0.160545C15.5967 0.286161 14.4316 0.0989691 13.8254 0.160545C12.7361 0.202417 10.9648 0.202417 9.83756 0.160545C9.15081 0.411777 9.11292 0.0989691 8.38829 0.160545C7.21846 0.263994 6.45594 0.0349297 5.68868 0.160545C5.00194 0.244289 4.59937 0.160545 3.51479 0.140841C2.54387 0.118674 2.22182 0.0768017 1.09461 0.0768017C0.20895 0.0152253 0.0479203 0.118674 0.00529486 0.453649C-0.0325944 0.852664 0.123699 1.1236 0.772552 1.03986C1.5777 1.05956 2.1413 0.956112 2.98907 1.03986C3.87473 1.1039 3.91736 0.766457 4.56148 0.997984C5.44714 1.05956 7.70155 0.936408 8.38829 0.978279C9.5155 1.03986 10.0791 1.06202 11.0879 0.978279C11.893 1.12606 13.1434 1.03986 13.8254 0.978279C14.4695 0.936408 15.3173 1.1039 16.525 0.978279C17.4912 0.958575 18.0169 1.12606 18.9026 0.997984C19.8308 0.978279 20.2334 1.08173 21.157 1.03986C21.2233 1.04478 21.2754 1.04232 21.3275 1.03986C21.3843 1.04971 21.4411 1.0571 21.5122 1.05217C22.3978 1.0103 23.4066 1.07188 24.4912 1.03247C24.9364 0.739363 25.4195 1.05217 26.5846 0.990595C27.5508 0.948723 28.157 1.03247 29.2842 0.990595C30.3735 0.929018 31.0982 0.97089 31.9838 0.990595C32.9926 1.03247 33.7551 0.97089 34.7213 0.990595C35.7301 1.0103 36.6158 1.05217 37.4209 0.990595C38.4297 0.990595 39.0739 0.97089 39.8364 1.03247C40.7505 0.956112 40.9731 1.08419 41.8729 1.00045C41.925 1.00291 41.9913 1.00537 42.0671 1.00045C43.1138 0.980743 43.5164 1.12606 44.3215 1.00045H46.8175C47.9873 1.06449 47.7458 0.771383 48.7924 0.958575C49.7586 0.958575 52.2972 1.00045 53.2208 0.978279C54.0259 0.685176 54.0259 1.1039 54.9542 0.997984C56.0435 0.894536 56.6876 1.1039 57.6538 0.997984H60.3913C61.3575 1.01769 61.6795 0.91424 62.4847 1.01769C62.6836 1.03986 62.8257 1.03493 62.9346 1.01276C62.9583 1.01276 62.9772 1.01276 63.0009 1.01276C63.8487 0.97089 64.3318 1.07434 65.1369 0.993058C65.8237 0.951186 66.5862 1.09651 67.7134 1.01276C68.6417 0.887146 69.8068 1.07434 70.413 1.01276C71.5023 0.97089 73.2736 0.97089 74.4008 1.01276C75.0876 0.761531 75.1255 1.07434 75.8501 1.01276C77.0199 0.909314 77.7825 1.13838 78.5497 1.01276C78.7581 0.988132 78.9381 0.978279 79.118 0.978279C79.2412 1.04232 79.4164 1.06695 79.6722 1.03247C79.9279 1.03986 80.16 1.03247 80.3826 1.02508C80.4915 1.02754 80.6005 1.03247 80.7236 1.03493C81.1072 1.01769 81.3914 1.01523 81.6614 1.01769C81.7324 1.02261 81.8082 1.02754 81.884 1.03493C82.0687 1.04724 82.2155 1.04232 82.3386 1.02754C82.5612 1.03247 82.817 1.03493 83.139 1.03493C83.5416 1.06449 83.7926 1.05463 83.9489 1.00784C84.9956 1.02015 86.7006 0.933945 87.2785 0.97089C88.4057 1.03247 88.9693 1.05463 89.9781 0.97089C90.7832 1.11867 92.0335 1.03247 92.7156 0.97089C93.3597 0.929018 94.2075 1.09651 95.4152 0.97089C96.3813 0.951186 96.9071 1.11867 97.7927 0.990595C98.721 0.97089 99.1236 1.07434 100.047 1.03247C100.113 1.03739 100.166 1.03493 100.218 1.03247C100.274 1.04232 100.331 1.04971 100.402 1.04478C101.288 1.00291 102.297 1.06449 103.381 1.02508C103.827 0.731974 104.31 1.04478 105.475 0.983206C106.441 0.941334 107.047 1.02508 108.174 0.983206C109.264 0.921629 109.988 0.963501 110.874 0.983206C111.883 1.02508 112.645 0.963501 113.611 0.983206C114.62 1.00291 115.506 1.04478 116.311 0.983206C117.32 0.983206 117.964 0.963501 118.727 1.02508C119.641 0.948723 119.863 1.0768 120.763 0.993058C120.815 0.995521 120.881 0.997984 120.957 0.993058C122.004 0.973353 122.407 1.11867 123.212 0.993058H125.708C126.877 1.0571 126.636 0.763994 127.683 0.951186C128.649 0.951186 131.187 0.993058 132.111 0.97089C132.916 0.677787 132.916 1.09651 133.844 0.990595C134.934 0.887146 135.578 1.09651 136.544 0.990595H139.281C140.248 1.0103 140.57 0.906851 141.375 1.0103C141.574 1.03247 141.716 1.02754 141.825 1.00537C141.848 1.00537 141.867 1.00537 141.891 1.00537C142.739 0.963501 143.222 1.06695 144.027 0.985669C144.714 0.943797 145.476 1.08912 146.604 1.00537C147.532 0.879757 148.697 1.06695 149.303 1.00537C150.392 0.963501 152.164 0.963501 153.291 1.00537C153.978 0.754142 154.016 1.06695 154.74 1.00537C155.91 0.901925 156.673 1.13099 157.44 1.00537C158.127 0.921629 158.529 1.00537 159.614 1.02508C159.879 1.01276 160.092 1.00784 160.291 1.00784C160.405 1.03986 160.552 1.04971 160.741 1.02508C160.959 1.03 161.158 1.02508 161.347 1.02015C161.541 1.02261 161.764 1.02508 162.029 1.02508C162.394 1.04971 162.631 1.04724 162.792 1.01276C162.849 1.01769 162.901 1.02015 162.958 1.02508C163.843 1.08912 163.886 0.751679 164.53 0.983206C165.416 1.04478 167.67 0.921629 168.357 0.963501C169.484 1.02508 170.048 1.04725 171.056 0.963501C171.861 1.11128 173.112 1.02508 173.794 0.963501C174.438 0.921629 175.286 1.08912 176.493 0.963501C177.46 0.943797 177.985 1.11128 178.871 0.983206C179.799 0.963501 180.202 1.06695 181.125 1.02508C181.192 1.03 181.244 1.02754 181.296 1.02508C181.353 1.03493 181.41 1.04232 181.481 1.03739C182.366 0.995521 183.375 1.0571 184.46 1.01769C184.905 0.724585 185.388 1.03739 186.553 0.975816C187.519 0.933945 188.125 1.01769 189.253 0.975816C190.342 0.91424 191.067 0.956112 191.952 0.975816C192.961 1.01769 193.724 0.956112 194.69 0.975816C195.699 0.995521 196.584 1.03739 197.389 0.975816C198.398 0.975816 199.042 0.956112 199.805 1.01769C200.719 0.941334 200.941 1.06941 201.841 0.985669C201.893 0.988132 201.96 0.990595 202.036 0.985669C203.082 0.965964 203.485 1.11128 204.29 0.985669H206.786C207.956 1.04971 207.714 0.756605 208.761 0.943797C209.727 0.943797 212.266 0.985669 213.189 0.963501C213.994 0.670398 213.994 1.08912 214.923 0.983206C216.012 0.879757 216.656 1.08912 217.622 0.983206H220.36C221.326 1.00291 221.648 0.899462 222.453 1.00291C222.652 1.02508 222.794 1.02015 222.903 0.997984C222.927 0.997984 222.946 0.997984 222.969 0.997984C223.817 0.956112 224.3 1.05956 225.105 0.978279C225.792 0.936408 226.555 1.08173 227.682 0.997984C228.61 0.872368 229.775 1.05956 230.381 0.997984C231.471 0.956112 233.242 0.956112 234.369 0.997984C235.056 0.746752 235.094 1.05956 235.819 0.997984C236.988 0.894536 237.751 1.1236 238.518 0.997984C238.722 0.973353 238.907 0.963501 239.086 0.963501C239.21 1.02754 239.385 1.05217 239.641 1.01769C239.896 1.02508 240.128 1.01769 240.351 1.0103C240.46 1.01276 240.569 1.01769 240.692 1.02015C241.076 1.00291 241.36 1.00045 241.63 1.00291C241.701 1.00784 241.777 1.01276 241.852 1.02015C242.037 1.03247 242.184 1.02754 242.307 1.01276C242.53 1.01769 242.785 1.02015 243.107 1.02015C243.51 1.04971 243.761 1.03986 243.917 0.993058C244.964 1.00537 246.669 0.919166 247.247 0.956112C248.374 1.01769 248.938 1.03986 249.946 0.956112C250.752 1.1039 252.002 1.01769 252.684 0.956112C253.328 0.91424 254.176 1.08173 255.384 0.956112C256.35 0.936408 256.875 1.1039 257.761 0.975816C258.689 0.956112 259.092 1.05956 260.016 1.01769C260.082 1.02261 260.134 1.02015 260.186 1.01769C260.243 1.02754 260.3 1.03493 260.371 1.03C261.256 0.988132 262.265 1.04971 263.35 1.0103C263.795 0.717196 264.278 1.03 265.443 0.968427C266.409 0.926555 267.016 1.0103 268.143 0.968427C269.232 0.906851 269.957 0.948723 270.842 0.968427C271.851 1.0103 272.614 0.948723 273.58 0.968427C274.589 0.988132 275.474 1.03 276.28 0.968427C276.592 0.968427 276.867 0.968427 277.123 0.965964C277.246 1.02754 277.421 1.04971 277.667 1.01523C277.994 1.02261 278.278 1.01276 278.558 1.00045C278.605 1.00291 278.648 1.00537 278.695 1.0103C278.998 0.985669 279.221 0.983205 279.42 0.988132C279.566 0.993058 279.718 1.00045 279.884 1.01523C280.116 1.03247 280.286 1.02015 280.428 1.00045C280.523 0.995521 280.623 0.988132 280.736 0.978279C280.788 0.980743 280.855 0.983206 280.93 0.978279C281.977 0.958575 282.38 1.1039 283.185 0.978279H285.681C285.794 0.985669 285.894 0.985669 285.984 0.985669C286.69 1.01769 287.206 1.01523 287.983 0.948723C288.75 1.08912 289.91 1.02015 290.611 0.958575C290.928 0.958575 291.227 0.961038 291.487 0.961038C291.961 0.985669 292.525 1.02015 293.207 0.965964C293.363 0.993058 293.552 1.00784 293.817 0.975816C293.903 0.968427 293.979 0.963501 294.059 0.961038C294.585 0.988132 295.011 1.04478 295.556 0.995521C295.854 1.0103 296.157 1.01276 296.503 0.978279C297.005 0.997984 297.398 1.04232 298.052 1.01276C298.118 1.01769 298.17 1.01523 298.222 1.01276C298.279 1.02261 298.336 1.03 298.407 1.02508C299.292 0.983206 300.301 1.04478 301.386 1.00537C301.386 1.00537 301.395 1.00045 301.395 0.997984C301.566 1.01523 301.698 1.0103 301.798 0.988132C301.822 0.988132 301.841 0.988132 301.864 0.988132C302.712 0.94626 303.195 1.04971 304 0.968427C304.687 0.926555 305.449 1.07188 306.577 0.988132C307.505 0.862516 308.67 1.04971 309.276 0.988132C309.418 0.983205 309.575 0.978279 309.74 0.973353C310.134 0.973353 310.512 0.961038 310.906 0.958575C310.92 0.958575 310.939 0.958575 310.953 0.958575C311.166 0.958575 311.384 0.958575 311.616 0.961038C312.577 0.980743 313.43 1.01769 314.207 0.965964C314.339 0.990595 314.491 1.00784 314.713 0.988132C315.883 0.884683 316.646 1.11375 317.413 0.988132C317.441 0.985669 317.465 0.983206 317.494 0.980743C317.868 0.990595 318.166 1.02015 318.701 0.975816C318.948 0.988132 319.227 1.00291 319.592 1.00784C319.715 1.00291 319.828 0.997984 319.933 0.995521C320.312 1.01769 320.624 1.03986 321.017 0.995521C321.287 1.00045 321.595 1.00537 322.012 1.00537C322.448 1.03493 322.703 1.02508 322.86 0.968427H323.722C324.891 1.03247 324.65 0.739363 325.697 0.926555C326.663 0.926555 329.201 0.968427 330.125 0.94626C330.93 0.653156 330.93 1.07188 331.858 0.965964C332.948 0.862516 333.592 1.07188 334.558 0.965964H337.295C338.262 0.985669 338.584 0.88222 339.389 0.985669C339.588 1.00784 339.73 1.00291 339.839 0.980743C339.862 0.980743 339.881 0.980743 339.905 0.980743C340.753 0.938871 341.236 1.04232 342.041 0.961038C342.728 0.919166 343.49 1.06449 344.617 0.980743C345.546 0.855127 346.711 1.04232 347.317 0.980743C348.406 0.938871 350.178 0.938871 351.305 0.980743C351.992 0.729511 352.03 1.04232 352.754 0.980743C353.924 0.877294 354.687 1.10636 355.454 0.980743C355.662 0.956112 355.842 0.94626 356.022 0.94626C356.145 1.0103 356.321 1.03493 356.576 1.00045C356.832 1.00784 357.064 1.00045 357.287 0.993058C357.396 0.995521 357.505 1.00045 357.628 1.00291C358.011 0.985669 358.296 0.983206 358.565 0.985669C358.637 0.990595 358.712 0.995521 358.788 1.00291C358.973 1.01523 359.12 1.0103 359.243 0.995521C359.465 1.00045 359.721 1.00291 360.043 1.00291C360.446 1.03247 360.697 1.02261 360.853 0.975816C361.9 0.988132 363.605 0.901925 364.183 0.938871C365.31 1.00045 365.873 1.02261 366.882 0.938871C367.687 1.08665 368.938 1.00045 369.62 0.938871C370.264 0.896999 371.112 1.06449 372.319 0.938871C373.285 0.919166 373.811 1.08665 374.697 0.958575C375.625 0.938871 376.028 1.04232 376.951 1.00045C377.018 1.00537 377.07 1.00291 377.122 1.00045C377.179 1.0103 377.235 1.01769 377.306 1.01276C378.192 0.97089 379.201 1.03247 380.285 0.993058C380.731 0.699954 381.214 1.01276 382.379 0.951186C383.345 0.909314 383.951 0.993058 385.078 0.951186C386.168 0.88961 386.892 0.931481 387.778 0.951186C388.787 0.993058 389.549 0.931481 390.516 0.951186C391.524 0.97089 392.41 1.01276 393.215 0.951186C394.224 0.951186 394.868 0.931481 395.631 0.993058C396.545 0.916703 396.767 1.04478 397.667 0.961038C397.719 0.963501 397.786 0.965964 397.861 0.961038C398.908 0.941334 399.311 1.08665 400.116 0.961038H402.612C403.782 1.02508 403.54 0.731974 404.587 0.919166C405.553 0.919166 408.091 0.961038 409.015 0.938871C409.82 0.645767 409.82 1.06449 410.748 0.958575C411.838 0.855127 412.482 1.06449 413.448 0.958575H416.186C417.152 0.978279 417.474 0.874831 418.279 0.978279C418.478 1.00045 418.62 0.995521 418.729 0.973353C418.753 0.973353 418.772 0.973353 418.795 0.973353C419.643 0.931481 420.126 1.03493 420.931 0.953649C421.618 0.911777 422.38 1.0571 423.508 0.973353C424.436 0.847738 425.601 1.03493 426.207 0.973353C427.297 0.931481 429.068 0.931481 430.195 0.973353C430.882 0.722122 430.92 1.03493 431.644 0.973353C432.814 0.869905 433.577 1.09897 434.344 0.973353C435.031 0.88961 435.433 0.973353 436.518 0.993058C436.783 0.980742 436.996 0.975816 437.195 0.975816C437.309 1.00784 437.456 1.01769 437.645 0.993058C437.863 0.997984 438.062 0.993058 438.251 0.988132C438.445 0.990595 438.668 0.993058 438.933 0.993058C439.298 1.01769 439.535 1.01523 439.696 0.980743C439.753 0.985669 439.805 0.988132 439.862 0.993058C440.747 1.0571 440.79 0.719659 441.434 0.951186C442.32 1.01276 444.574 0.88961 445.261 0.931481C446.388 0.993058 446.952 1.01523 447.96 0.931481C448.766 1.07926 450.016 0.993058 450.698 0.931481C451.342 0.88961 452.19 1.0571 453.398 0.931481C454.364 0.911777 454.889 1.07926 455.775 0.951186C456.703 0.931481 457.106 1.03493 458.03 0.993058C458.096 0.997984 458.148 0.995521 458.2 0.993058C458.257 1.00291 458.314 1.0103 458.385 1.00537C459.27 0.963501 460.279 1.02508 461.364 0.985669C461.809 0.692565 462.292 1.00537 463.457 0.943797C464.423 0.901925 465.03 0.985669 466.157 0.943797C467.246 0.88222 467.971 0.924092 468.856 0.943797C469.865 0.985669 470.628 0.924092 471.594 0.943797C472.603 0.963501 473.488 1.00537 474.293 0.943797C475.302 0.943797 475.946 0.924092 476.709 0.985669C477.623 0.909314 477.846 1.03739 478.745 0.953649C478.798 0.956112 478.864 0.958575 478.94 0.953649C479.986 0.933945 480.389 1.07926 481.194 0.953649H483.69C484.86 1.01769 484.618 0.724585 485.665 0.911777C486.631 0.911777 489.17 0.953649 490.093 0.931481C490.898 0.638378 490.898 1.0571 491.827 0.951186C492.916 0.847738 493.56 1.0571 494.526 0.951186H497.264C498.23 0.97089 498.552 0.867442 499.357 0.97089C499.556 0.993058 499.698 0.988132 499.807 0.965964C499.831 0.965964 499.85 0.965964 499.873 0.965964C500.721 0.924092 501.204 1.02754 502.009 0.94626C502.696 0.904388 503.459 1.04971 504.586 0.965964C505.514 0.840348 506.679 1.02754 507.286 0.965964C508.375 0.924092 510.146 0.924092 511.273 0.965964C511.96 0.714733 511.998 1.02754 512.723 0.965964C513.892 0.862516 514.655 1.09158 515.422 0.965964C515.626 0.941334 515.811 0.931481 515.991 0.931481C516.114 0.995521 516.289 1.02015 516.545 0.985669C516.8 0.993058 517.033 0.985669 517.255 0.978279C517.364 0.980743 517.473 0.985669 517.596 0.988132C517.98 0.97089 518.264 0.968427 518.534 0.97089C518.605 0.975816 518.681 0.980742 518.757 0.988132C518.941 1.00045 519.088 0.995521 519.211 0.980743C519.434 0.985669 519.69 0.988132 520.012 0.988132C520.414 1.01769 520.665 1.00784 520.822 0.961038C521.868 0.973353 523.573 0.887146 524.151 0.924092C525.278 0.985669 525.842 1.00784 526.851 0.924092C527.656 1.07188 528.906 0.985669 529.588 0.924092C530.232 0.88222 531.08 1.04971 532.288 0.924092C533.254 0.904388 533.78 1.07188 534.665 0.943797C535.594 0.924092 535.996 1.02754 536.92 0.985669C536.986 0.990595 537.038 0.988132 537.09 0.985669C537.147 0.995521 537.204 1.00291 537.275 0.997984C538.161 0.956112 539.169 1.01769 540.254 0.978279C540.699 0.685176 541.182 0.997984 542.347 0.936408C543.313 0.894536 543.92 0.978279 545.047 0.936408C546.136 0.874831 546.861 0.916703 547.747 0.936408C548.755 0.978279 549.518 0.916703 550.484 0.936408C551.493 0.956112 552.378 0.997984 553.184 0.936408C554.192 0.936408 554.837 0.916703 555.599 0.978279C556.513 0.901925 556.736 1.03 557.636 0.94626C557.688 0.948723 557.754 0.951186 557.83 0.94626C558.877 0.926555 559.279 1.07188 560.084 0.94626H562.58C563.75 1.0103 563.508 0.717196 564.555 0.904388C565.521 0.904388 568.06 0.94626 568.983 0.924092C569.789 0.630989 569.789 1.04971 570.717 0.943797C571.806 0.840348 572.45 1.04971 573.417 0.943797H576.154C577.12 0.963501 577.442 0.860053 578.247 0.963501C578.446 0.985669 578.588 0.980743 578.697 0.958575C578.721 0.958575 578.74 0.958575 578.764 0.958575C579.611 0.916703 580.094 1.02015 580.9 0.938871C581.586 0.896999 582.349 1.04232 583.476 0.958575C584.404 0.832959 585.57 1.02015 586.176 0.958575C587.265 0.916703 589.036 0.916703 590.164 0.958575C590.85 0.707344 590.888 1.02015 591.613 0.958575C592.783 0.855127 593.545 1.08419 594.312 0.958575C594.999 0.874831 595.402 0.958575 596.486 0.978279C597.453 0.936408 597.775 0.978279 598.902 0.978279C599.787 1.03986 599.948 0.936408 599.991 0.601432C600.029 0.202417 599.873 -0.0685185 599.224 0.0152253L599.229 0.0792647Z" fill="#505050"/>
</g>
<defs>
<clipPath id="clip0_33_1316">
<rect width="600" height="1" fill="white"/>
</clipPath>
</defs>
</svg>
