<svg width="48" height="46" viewBox="0 0 48 46" fill="none" xmlns="http://www.w3.org/2000/svg">
<g clip-path="url(#clip0_33_19)">
<path d="M0 29.2378L0.311321 28.5416L0.707547 27.9554L1.19811 27.4608L1.76415 26.9845L2.5 26.902L3.20755 27.0761L3.89623 26.8837L4.58491 26.9295L5.29245 26.9845L5.87736 27.4058L6.61321 27.4608L7.01887 28.102L7.64151 28.3767L8.10377 28.8622L8.65094 29.2561L9.28302 29.5767L9.54717 30.2545L9.93396 30.8224L10.2736 31.4361L10.9623 31.7292L11.6038 32.0681L11.783 32.8375L12.2642 33.323L12.6604 33.8909L13.4906 34.0649L13.7453 34.7702L14.4717 35.0175L14.8774 35.5763L15.1698 36.2999L15.7925 36.6113L16.2075 35.8511L17.0189 35.5854L17.1981 34.8984L17.5472 34.3214L17.6698 33.5978L18.0943 33.0665L18.7453 32.691L19.1321 32.1322L19.7075 31.7017L19.8868 31.0056L20.3679 30.5201L20.6038 29.8698L20.717 29.137L21.6226 28.9263L21.7358 28.1936L21.934 27.5066L22.3491 26.9753L22.717 26.4074L23.3302 26.0044L23.717 25.4456L24.2453 24.9785L24.7453 24.493L24.6415 23.6045L25.1509 23.1191L25.6038 22.597L25.8962 21.9741L26.3302 21.4429L27.0189 21.0856L27.1132 20.3345L27.3868 19.7025L27.8208 19.1804L28.5189 18.8415L28.8396 18.2461L29.3208 17.7607L29.9057 17.3393L29.8679 16.4875L30.5755 16.1577L30.783 15.4799L31.1509 14.912L31.4151 14.2708L32.0472 13.8861L32.2642 13.2174L32.9717 12.8877L33.2264 12.2465L33.6321 11.7061L33.8962 11.0649L34.7547 10.8542L35.1792 10.3321L35.1321 9.47113L36.0094 9.27878L36.0283 8.46356L36.4811 7.95978L36.8208 7.37356L37.4528 6.99801L37.8208 6.43011L38.5 6.10036L38.783 5.4775L39.1792 4.93708L39.566 4.3875L40.0943 3.94783L40.1509 3.14178L40.7736 2.77539L41.2925 2.3174L41.7547 1.82278L42.0755 1.2274L42.5849 0.769416L43.2359 0.522104L43.9623 0.63202H44.6415L45.3302 0.0274803L46.1132 -0.0183182L46.8585 0.183195L47.3679 0.686979L47.6887 1.14496L48 1.7953L47.6415 2.39068L47.4717 3.17842L46.7736 3.48069L46.3019 4.01195L45.9245 4.55237L45.217 4.80884L45.0472 5.53246L44.2453 5.72481L43.9151 6.31103L43.6321 6.93389L43.1038 7.35524L42.8491 7.98726L42.4434 8.5002L42 8.99482L41.6792 9.58105L40.9245 9.84668L40.3491 10.2497L40.0094 10.8176L39.7736 11.4679L39.3208 11.9626L38.9528 12.5121L38.5755 13.0526L38.0472 13.4922L37.9717 14.2525L37.6415 14.8296L36.9906 15.1868L36.5094 15.6539L36.4528 16.4142L35.6698 16.6798L35.2358 17.1928L34.7925 17.6965L34.8491 18.5392L34.434 19.0613L33.9434 19.5376L33.7358 20.2063L32.9811 20.5086L32.4717 20.9757L32.3019 21.6627L31.6981 22.0657L31.5755 22.7802L31.1038 23.2656L30.9811 23.9709L30.4717 24.4289L30.0377 24.9419L29.8208 25.583L29.3208 26.0502L28.8113 26.5082L28.434 27.0577L28.4906 27.8638L28 28.3401L27.6604 28.908L27.3491 29.4851L26.9623 30.0255L26.2925 30.4194L26.3679 31.2071L25.8113 31.6651L25.8774 32.4345L25.0943 32.7917L25.1604 33.552L24.9811 34.1932L24.5943 34.7427L24.2264 35.3015L23.8208 35.8511L23.4811 36.4281L23.717 37.2159L22.9057 37.628L23.0566 38.37L23.0755 39.0569L22.8679 39.6707L22.6792 40.2935L22.5094 40.9255L21.9151 41.4751L21.8868 42.1438L21.6132 42.7575L21.5566 43.3986L21.3019 43.9757L21.2547 44.6993L20.9057 45.3405L20.0566 45.2764L19.4623 45.4046L18.8491 46L18.1698 45.6153L17.5283 45.3497L16.7264 45.7069L16.0943 45.3771L15.3774 45.2672L14.9717 44.5345L14.3868 44.1955L13.566 44.1681L13.2358 43.4536L12.5 43.2155L12.1321 42.6018L11.7547 42.0247L11.1604 41.5942L10.8396 40.9805L10.7453 40.2294L10.1887 39.808L9.93396 39.1577L9.40566 38.7272L8.57547 38.5623L8.48113 37.7563L7.78302 37.4906L7.4717 36.8769L7.14151 36.2724L6.26415 36.1808L6.15094 35.3748L5.60377 34.9717L4.85849 34.7611L4.67925 34.0008L4.19811 33.5428L3.46226 33.3321L2.93396 32.9108L2.75472 32.1505L2.28302 31.6742L1.80189 31.1979L1.43396 30.6117L0.764151 30.3919L0.273585 29.9339L0.0377358 29.2561L0 29.2378Z" fill="#CB0008"/>
</g>
<defs>
<clipPath id="clip0_33_19">
<rect width="48" height="46" fill="white"/>
</clipPath>
</defs>
</svg>
