<svg width="35" height="24" viewBox="0 0 35 24" fill="none" xmlns="http://www.w3.org/2000/svg">
<g clip-path="url(#clip0_33_1006)">
<path d="M17.9005 24C17.7638 24 17.6365 23.9903 17.5093 23.9741C17.3113 23.9611 17.1369 23.9579 16.9861 23.9579C16.9013 23.9579 16.5902 23.9611 16.5101 23.9611C16.331 23.9611 16.1001 23.9546 15.756 23.919L15.6994 23.9125L15.6476 23.8931C15.3837 23.7959 15.1197 23.7862 14.7851 23.7732C14.573 23.7667 14.3373 23.757 14.064 23.7246L13.9838 23.7149L13.9179 23.6825C13.8613 23.6533 13.6351 23.6436 13.4701 23.6371C13.1213 23.6242 12.6924 23.6047 12.3484 23.4266C12.1033 23.365 11.8865 23.3326 11.6791 23.3002C11.3445 23.2516 11.024 23.203 10.7318 23.0345L10.5385 22.9762C10.1096 22.8499 9.52047 22.6749 9.22825 22.5259L9.20469 22.5129L9.18583 22.4968C9.03972 22.3898 8.87948 22.351 8.6721 22.3024C8.41287 22.2408 8.09709 22.1663 7.82844 21.9363C7.38069 21.8423 7.14032 21.6706 6.92351 21.5151C6.79626 21.4244 6.67843 21.3402 6.51818 21.2624C5.92432 20.9903 5.56141 20.757 5.23148 20.433L5.20792 20.4104L5.19378 20.3844C5.10894 20.2289 4.99111 20.1771 4.79316 20.0864C4.59049 19.9957 4.34541 19.8855 4.13803 19.6458C3.662 19.4546 3.44519 19.1339 3.2708 18.8747C3.22367 18.8067 3.17654 18.7386 3.12941 18.6739C3.02572 18.4924 2.89846 18.3985 2.75236 18.2916C2.54969 18.1425 2.31874 17.9708 2.25276 17.6566C2.15378 17.4784 1.99825 17.3132 1.86157 17.1706C1.67304 16.9762 1.50808 16.8013 1.51751 16.6199L1.4091 16.4482C1.22529 16.1631 1.0509 15.8909 0.947211 15.5993C0.645569 15.2559 0.405197 14.7214 0.523026 14.3553C0.5136 14.2289 0.452329 14.054 0.391057 13.8823C0.30622 13.649 0.226096 13.4255 0.240236 13.2343C0.21667 13.1209 0.188391 13.027 0.164825 12.9428C0.0847014 12.6512 0.0375697 12.4698 0.150686 12.0324C-0.136818 11.4719 0.0422829 11.0637 0.249662 10.7656C0.287368 10.4708 0.334499 10.1566 0.532453 9.61554L0.556018 9.55399L0.622003 9.50863C0.711553 9.44707 0.716266 9.28509 0.725692 9.12634C0.735119 8.90604 0.749258 8.65982 0.947211 8.44599C0.98963 8.33584 1.08861 8.18682 1.23 7.96975C1.3384 7.80777 1.51751 7.53563 1.52693 7.46111C1.52693 6.95247 1.96997 6.54103 2.34702 6.28509L2.38944 6.25593L2.446 6.23973C2.53084 6.21381 2.56383 6.15226 2.64867 5.99027C2.7335 5.81856 2.85133 5.58206 3.15298 5.3488L3.2331 5.24837C3.55831 4.8434 3.69499 4.67494 4.22286 4.39308C4.45852 4.29913 4.57635 4.15334 4.70361 3.99783C4.85443 3.80993 5.02882 3.59934 5.37288 3.50863C5.57083 3.43412 6.15526 3.08422 6.49933 2.8218C6.9565 2.53347 7.21101 2.38444 7.84729 2.0961L7.91799 2.0637H8.00283C8.19607 2.05075 8.37988 1.94383 8.59197 1.82396C8.78993 1.71057 9.01145 1.58422 9.29895 1.49999L9.34137 1.48703H9.3885C9.4592 1.47407 9.68072 1.37364 9.82682 1.31209C10.1709 1.15982 10.5244 1.00431 10.859 0.988111C10.9768 0.939515 11.0758 0.894159 11.1607 0.855282C11.5613 0.670617 11.8016 0.576664 12.5133 0.576664C13.2062 0.550746 13.6539 0.524828 13.8802 0.369321L13.9226 0.340163L13.9791 0.323964C14.4881 0.171697 14.8511 0.155498 15.2658 0.139299C15.4166 0.13282 15.5816 0.12634 15.7701 0.113381C15.9634 0.0745043 16.1896 0.0583056 16.4818 0.0583056C16.6138 0.0583056 16.7505 0.0615453 16.8824 0.0647851C17.0003 0.0647851 17.1134 0.0712645 17.2171 0.0712645C17.3208 0.0712645 17.415 0.0712645 17.4999 0.0583056C17.7308 0.0259082 17.9853 0.00646973 18.2493 0.00646973C18.6405 0.00646973 19.0316 0.0453466 19.3804 0.119861L19.4181 0.12958L19.4511 0.142539C19.7339 0.259169 20.0355 0.25917 20.3513 0.25917C20.5917 0.25917 20.8462 0.25917 21.0772 0.317485L21.1667 0.340163L21.2233 0.391999C21.2893 0.450314 21.4542 0.463273 21.737 0.482712C22.0057 0.50215 22.3403 0.524828 22.7173 0.618781C23.052 0.699774 23.2829 0.784008 23.4714 0.855282C23.7118 0.942755 23.8438 0.994591 24.0653 0.994591C24.0889 0.994591 24.2821 0.984871 24.2821 0.984871L24.3858 1.04967C24.6026 1.1825 25.0409 1.29589 25.3567 1.37688C25.5358 1.42224 25.6914 1.46111 25.8092 1.50323C26.2616 1.59718 26.5397 1.75593 26.7612 1.88228C26.9074 1.96651 27.0252 2.03455 27.1666 2.07018C27.6049 2.12526 27.9065 2.35528 28.1516 2.53995C28.2695 2.63066 28.392 2.72461 28.491 2.76673C28.8586 2.83476 29.0471 3.00647 29.2309 3.16846C29.3771 3.29805 29.5279 3.43412 29.8012 3.5637L29.8342 3.5799L29.8625 3.60258C30.0416 3.74837 30.2019 3.8488 30.3574 3.94599C30.5836 4.09178 30.8004 4.22785 30.9701 4.44815C31.3095 4.71705 31.465 4.87256 31.6017 5.01511C31.7054 5.11878 31.7902 5.20949 31.9504 5.34232C32.3275 5.6015 32.4453 5.77321 32.6197 6.03563C32.6763 6.1231 32.747 6.22353 32.8365 6.34988L32.8648 6.38876V6.43088C32.8789 6.50539 33.025 6.64146 33.1429 6.75485C33.3455 6.94599 33.5671 7.15658 33.5906 7.39956C33.9205 7.74297 34.0242 8.06046 34.0949 8.27105C34.1185 8.34556 34.1374 8.40712 34.1656 8.45571L34.1986 8.51079L34.1892 8.57234C34.1468 8.84772 34.2458 9.01619 34.3777 9.22677C34.4484 9.34016 34.5238 9.46651 34.5804 9.61878C34.6417 9.8974 34.6888 10.0659 34.7312 10.2214C34.7831 10.406 34.8255 10.5648 34.8679 10.8078L34.8773 10.8564L34.8585 10.9017C34.7454 11.1577 34.8161 11.3423 34.8867 11.5367C34.948 11.7052 35.014 11.8801 34.9433 12.0777C34.8113 12.3175 34.8349 12.4438 34.8726 12.6188C34.9056 12.7775 34.948 12.9752 34.8726 13.2473C34.9103 13.6296 34.8066 14.0702 34.5898 14.4363C34.5804 14.8866 34.4626 15.2203 34.1703 15.5993C34.0148 16.095 33.8828 16.3801 33.5435 16.7106C33.4964 16.7851 33.4587 16.8628 33.4162 16.9406C33.2984 17.1739 33.1664 17.4363 32.7894 17.757C32.5867 17.9352 32.4877 18.0745 32.3841 18.2203C32.2757 18.3693 32.1673 18.5248 31.9504 18.716C31.6158 18.9492 31.4131 19.1663 31.2529 19.3412C31.1162 19.487 31.0172 19.5939 30.8947 19.662C30.6308 19.8304 30.4658 19.9665 30.2773 20.1253C30.1642 20.2192 30.051 20.3164 29.9002 20.4298C29.7541 20.6922 29.4195 20.8315 29.1508 20.9449C28.9576 21.0259 28.7785 21.1004 28.6936 21.1976C28.2836 21.6382 27.9348 21.8715 27.143 21.9687C26.8744 21.9946 26.5633 22.1793 26.3371 22.3186C26.0873 22.4708 25.9082 22.5777 25.6819 22.5777C25.517 22.5842 25.3991 22.6458 25.2059 22.7559C24.9891 22.879 24.7252 23.0313 24.2774 23.0669C23.7165 23.3391 23.2264 23.3909 22.8682 23.4298C22.7928 23.4363 22.7268 23.446 22.6608 23.4557H22.6372L22.6137 23.459C22.2979 23.4687 22.0764 23.5432 21.8643 23.6145C21.6616 23.6825 21.4495 23.7538 21.1903 23.7538C21.1054 23.7538 21.0206 23.7473 20.9405 23.7311C20.8132 23.7311 20.6435 23.7603 20.4503 23.7926C20.1392 23.8445 19.748 23.9093 19.2909 23.9255H19.2626H19.2343C19.1683 23.919 19.1023 23.9158 19.0364 23.9158C18.8573 23.9158 18.6876 23.9352 18.5085 23.9546C18.3105 23.9773 18.1126 24 17.8816 24H17.9005ZM17.382 22.5389C17.4952 22.5389 17.5894 22.5486 17.679 22.568L17.7025 22.5745L17.7214 22.581C17.8251 22.6166 17.9618 22.6328 18.1314 22.6328C18.3859 22.6328 18.7064 22.5907 19.0788 22.5129L19.2249 22.4806L19.3569 22.5356C19.3569 22.5356 19.3757 22.5421 19.4323 22.5421C19.5925 22.5421 19.8423 22.4903 20.0827 22.4417C20.2853 22.3996 20.4974 22.3574 20.6907 22.338L20.7708 22.3283L20.8462 22.3445C20.8462 22.3445 20.9311 22.3607 21.0395 22.3607C21.2138 22.3607 21.5768 22.3283 22.0434 22.1209L22.0858 22.1015L22.1376 22.0918C22.4581 22.0302 22.9294 21.9039 23.2735 21.8132L23.5233 21.7484C23.7212 21.6674 23.9805 21.5929 24.2303 21.5183C24.4659 21.4503 24.7629 21.3628 24.8571 21.311L24.9043 21.2818L24.9655 21.2689C24.9655 21.2689 25.0598 21.2106 25.1163 21.1749C25.352 21.0227 25.7055 20.7926 26.2758 20.7408C26.8838 20.595 27.1901 20.297 27.2703 20.2095L27.2985 20.1771L27.341 20.1544C27.5436 20.0378 27.6897 19.9406 27.8264 19.8499C28.0149 19.7235 28.1893 19.6069 28.4768 19.4579L28.5287 19.432L28.59 19.419C28.901 19.3607 29.2828 19.2149 29.3488 18.8423C29.4148 18.6155 29.6693 18.4341 29.9191 18.2592C30.0369 18.1782 30.2113 18.0551 30.2349 18.0032L30.249 17.919L30.3385 17.8704C30.7533 17.608 31.0031 17.3456 31.0314 17.135V17.0961L31.7289 16.0885L31.7713 16.0594C31.875 15.9816 32.1013 15.5475 32.2238 15.23C32.139 14.9741 32.2568 14.7862 32.3746 14.6047C32.45 14.4849 32.5349 14.352 32.5961 14.1641C32.5867 14.0054 32.6668 13.8693 32.747 13.7397C32.8459 13.568 32.9355 13.419 32.8601 13.1955C32.7234 13.0205 32.7847 12.8034 32.8459 12.5734C32.8931 12.4147 32.9402 12.2333 32.9261 12.0713C32.7375 11.7926 32.6433 11.1771 32.8554 10.8272C33.0109 10.4579 32.9355 10.2732 32.6433 9.95247C32.3888 9.73865 32.3464 9.45031 32.3086 9.19437C32.2945 9.08746 32.2757 8.98379 32.2474 8.8866C32.205 8.81856 32.172 8.74405 32.1295 8.65334C32.0541 8.48163 31.9552 8.24837 31.7054 7.92764L31.6865 7.90172L31.6771 7.8758C31.6441 7.77861 31.6252 7.69113 31.6111 7.6069C31.5734 7.40604 31.5545 7.29589 31.2765 7.1501C30.9513 6.98163 30.923 6.78077 30.8994 6.64794C30.8806 6.51835 30.8711 6.45031 30.5883 6.34016C30.1312 6.14902 30.0275 5.88336 29.9521 5.68897C29.8766 5.50107 29.8484 5.42332 29.5844 5.37148C29.1697 5.28401 28.9859 5.06694 28.835 4.89524C28.7361 4.77861 28.6512 4.67818 28.5098 4.61014C28.2129 4.52267 28.0432 4.38984 27.8264 4.22137C27.6992 4.12094 27.5531 4.00755 27.341 3.87148C27.209 3.81316 27.0723 3.76457 26.9403 3.71597C26.6387 3.60906 26.3323 3.49567 26.1297 3.29157C25.6348 3.22029 25.3426 3.03887 25.0645 2.86392C24.9938 2.8218 24.9231 2.77645 24.843 2.73109C24.7911 2.71813 24.6922 2.70193 24.612 2.68574C24.2586 2.62094 23.7448 2.52699 23.4526 2.28725C23.2169 2.22893 23.0331 2.1609 22.8635 2.10258C22.6419 2.02159 22.4817 1.96327 22.2932 1.96327H22.18L22.1235 1.95679C22.0104 1.93412 21.8454 1.9244 21.671 1.91144C21.2751 1.88552 20.8321 1.85312 20.5587 1.67494C20.3466 1.6555 20.144 1.6555 19.9601 1.65226C19.6444 1.64902 19.3427 1.64254 19.1071 1.55507C18.9562 1.58422 18.7771 1.59718 18.5698 1.59718C18.1644 1.59718 17.7072 1.53887 17.4386 1.45463C17.3255 1.43196 17.2076 1.419 17.0898 1.419C16.8871 1.419 16.7081 1.45139 16.5337 1.48379C16.3781 1.51295 16.232 1.53887 16.0859 1.53887C16.0388 1.53887 15.9916 1.53887 15.9492 1.52915H15.9398C15.4261 1.6069 14.8416 1.69113 14.4976 1.69113C14.4646 1.69113 14.4316 1.69113 14.3986 1.69113C13.6492 1.76889 13.4418 1.82072 13.0459 1.94383C12.749 2.07018 12.4426 2.12526 12.1693 2.17062C11.9902 2.20301 11.8158 2.23217 11.6461 2.28401C11.3822 2.43628 11.0852 2.47515 10.8449 2.50755C10.5809 2.54319 10.4348 2.56586 10.3264 2.6663L10.3123 2.67926L10.2934 2.69221C10.0295 2.87364 9.74199 2.89632 9.54875 2.89632C9.4969 2.89632 9.44977 2.89632 9.39793 2.89632C9.36022 2.89632 9.32723 2.89632 9.29424 2.89632C9.22354 2.89632 9.16227 2.89632 9.101 3.12958L9.07743 3.22353L8.9596 3.27861C8.78993 3.35636 8.6721 3.42764 8.55427 3.50215C8.35631 3.62526 8.14894 3.75161 7.72475 3.90064C6.99892 4.07882 6.82925 4.24081 6.78212 4.44491L6.76798 4.50971L6.70671 4.55831C6.49933 4.72353 6.30609 4.84988 6.14584 4.94707C5.9526 5.07018 5.8112 5.1609 5.76878 5.25161L5.74993 5.29049L5.71223 5.32288C5.53313 5.47515 5.453 5.58854 5.37288 5.70193C5.25505 5.86392 5.14665 6.01943 4.81201 6.1717C4.78844 6.20733 4.75074 6.27537 4.71775 6.3272C4.57164 6.58638 4.37369 6.93628 3.95421 7.08206C3.60544 7.3218 3.49704 7.70085 3.45462 7.84664L3.44519 7.87256L3.42163 7.92116C3.36507 8.00539 3.29908 8.09286 3.22839 8.18358C3.06342 8.39416 2.89375 8.61446 2.89375 8.81856V8.85096L2.87961 8.88012C2.79006 9.10366 2.74764 9.24297 2.71465 9.36608C2.67223 9.51835 2.62981 9.6609 2.5167 9.90712L2.50256 9.93952L2.47428 9.96543C2.31874 10.1274 2.33288 10.2505 2.35645 10.4222C2.3753 10.5777 2.40358 10.7689 2.27633 10.986C2.18678 11.2192 2.20563 11.3358 2.22448 11.4784C2.24333 11.6209 2.2669 11.7829 2.20563 12.0518V12.0777L2.18678 12.1004C1.99354 12.4309 2.01239 12.7354 2.24333 12.9978L2.33288 13.1015L2.26219 13.2117C2.23391 13.257 2.31874 13.4352 2.36588 13.5389C2.45543 13.7235 2.54969 13.9276 2.53555 14.1415C2.69108 14.3456 2.70994 14.5108 2.72408 14.6728C2.73822 14.8186 2.75236 14.9546 2.86547 15.1555C2.94088 15.3304 3.01629 15.4503 3.10113 15.5767C3.21425 15.7484 3.32736 15.9298 3.40277 16.1857V16.2084L3.40749 16.2311C3.40749 16.5194 3.5913 16.7689 3.97307 16.9924L4.07204 17.0507L4.0909 17.1382C4.15217 17.4492 4.56221 17.7246 4.75545 17.8607L4.79787 17.8898C4.94398 17.9903 5.03353 18.1069 5.12308 18.2171C5.24562 18.3726 5.36817 18.5313 5.66038 18.703C5.97616 18.8747 6.11756 19.0205 6.24481 19.1533C6.35322 19.2667 6.43805 19.3542 6.65015 19.4676L6.68785 19.487L6.71613 19.5129C6.93294 19.7106 7.13089 19.7948 7.32413 19.8758C7.5268 19.96 7.73418 20.0475 7.87086 20.2387L7.88028 20.2548L7.88971 20.271C8.04053 20.5788 8.63439 20.7311 8.82292 20.7505L8.90304 20.757L8.96903 20.7894C9.04444 20.8283 9.13399 20.8801 9.23296 20.9417C9.46862 21.0875 9.76084 21.2689 10.0578 21.2689H10.1238L10.185 21.2851C10.4065 21.3466 11.1889 21.6026 11.6225 21.7646L11.7215 21.8034L11.7686 21.8747C11.8111 21.8909 12.0703 21.9168 12.2211 21.933C12.5322 21.9654 12.8527 21.9978 13.0601 22.1307C13.1166 22.1469 13.1779 22.1695 13.2439 22.1922C13.4748 22.27 13.734 22.3607 14.0875 22.3607C14.1582 22.3607 14.2336 22.3574 14.3138 22.3477C14.375 22.3348 14.441 22.3315 14.507 22.3315C14.705 22.3315 14.8888 22.3801 15.0914 22.4287C15.2894 22.4773 15.4968 22.5291 15.6947 22.5291C15.756 22.5291 15.8125 22.5259 15.8691 22.5162L16.0058 22.4935L16.1236 22.5453C16.2226 22.5875 16.3404 22.6037 16.5007 22.6037C16.6421 22.6037 16.7929 22.5907 16.939 22.5745C17.0945 22.5615 17.2359 22.5486 17.3632 22.5486L17.382 22.5389Z" fill="#B41D23"/>
</g>
<defs>
<clipPath id="clip0_33_1006">
<rect width="35" height="24" fill="white"/>
</clipPath>
</defs>
</svg>
